<svg width="1170" height="2532" viewBox="0 0 1170 2532" fill="none" xmlns="http://www.w3.org/2000/svg">
<rect x="856.227" y="-408" width="312" height="2013" transform="rotate(37.6002 856.227 -408)" fill="url(#paint0_linear_24_192)" fill-opacity="0.4"/>
<rect x="1314.23" y="1411" width="215.696" height="2013" transform="rotate(37.6002 1314.23 1411)" fill="url(#paint1_linear_24_192)" fill-opacity="0.4"/>
<rect x="1485.23" y="1591" width="215.696" height="2013" transform="rotate(37.6002 1485.23 1591)" fill="url(#paint2_linear_24_192)" fill-opacity="0.4"/>
<rect x="1496.34" y="-18.7375" width="109.379" height="3130.95" transform="rotate(37.6002 1496.34 -18.7375)" fill="url(#paint3_linear_24_192)" fill-opacity="0.2"/>
<rect x="1575.23" y="1615" width="215.696" height="2013" transform="rotate(37.6002 1575.23 1615)" fill="url(#paint4_linear_24_192)" fill-opacity="0.4"/>
<rect x="944.14" y="-729" width="313.502" height="2225.92" transform="rotate(37.6002 944.14 -729)" fill="url(#paint5_linear_24_192)" fill-opacity="0.4"/>
<rect x="1569.34" width="255.031" height="3130.95" transform="rotate(37.6002 1569.34 0)" fill="url(#paint6_linear_24_192)" fill-opacity="0.2"/>
<defs>
<linearGradient id="paint0_linear_24_192" x1="1012.23" y1="-408" x2="1012.23" y2="1605" gradientUnits="userSpaceOnUse">
<stop stop-color="#8EB2F9"/>
<stop offset="1" stop-color="#33A2D1" stop-opacity="0.2"/>
</linearGradient>
<linearGradient id="paint1_linear_24_192" x1="1422.07" y1="1411" x2="1422.07" y2="3424" gradientUnits="userSpaceOnUse">
<stop stop-color="#8EB2F9" stop-opacity="0.2"/>
<stop offset="1" stop-color="#33A2D1"/>
<stop offset="1" stop-color="#337CD1" stop-opacity="0"/>
</linearGradient>
<linearGradient id="paint2_linear_24_192" x1="1593.07" y1="1591" x2="1593.07" y2="3604" gradientUnits="userSpaceOnUse">
<stop stop-color="#8EB2F9" stop-opacity="0.38"/>
<stop offset="1" stop-color="#5932C8"/>
</linearGradient>
<linearGradient id="paint3_linear_24_192" x1="1551.03" y1="-18.7375" x2="1551.03" y2="3112.21" gradientUnits="userSpaceOnUse">
<stop stop-color="#8EB2F9" stop-opacity="0.34"/>
<stop offset="1" stop-color="#33A2D1"/>
</linearGradient>
<linearGradient id="paint4_linear_24_192" x1="1683.07" y1="1615" x2="1683.07" y2="3628" gradientUnits="userSpaceOnUse">
<stop stop-color="#8EB2F9" stop-opacity="0.89"/>
<stop offset="1" stop-color="#33A2D1"/>
<stop offset="1" stop-color="#33A2D1" stop-opacity="0.37"/>
</linearGradient>
<linearGradient id="paint5_linear_24_192" x1="1100.89" y1="-729" x2="1100.89" y2="1496.92" gradientUnits="userSpaceOnUse">
<stop stop-color="#492CF6"/>
<stop offset="1" stop-color="#33A2D1" stop-opacity="0.12"/>
</linearGradient>
<linearGradient id="paint6_linear_24_192" x1="1696.86" y1="0" x2="1696.86" y2="3130.95" gradientUnits="userSpaceOnUse">
<stop stop-color="#3664BD"/>
<stop offset="1" stop-color="#33A2D1" stop-opacity="0.41"/>
</linearGradient>
</defs>
</svg>
